<svg width="58" height="58" viewBox="0 0 58 58" fill="none" xmlns="http://www.w3.org/2000/svg">
<circle cx="29" cy="29" r="29" fill="white"/>
<circle cx="29" cy="29" r="27" fill="#1FB6D7"/>
<path d="M18.0864 42.051L15.7702 16.0625H41.2297L38.9105 42.0469L28.4845 44.9375L18.0864 42.051Z" fill="white"/>
<path d="M28.5 42.7286L36.9253 40.3929L38.9074 18.188H28.5V42.7286Z" fill="white"/>
<path d="M28.5 27.6031H32.7178L33.0086 24.3392H28.5V21.1516H28.5113H36.4922L36.4159 22.0065L35.6332 30.7907H28.5V27.6031Z" fill="#1FB6D7"/>
<path d="M28.5196 35.881L28.5052 35.8851L24.9556 34.9261L24.7287 32.384H23.0034H21.5287L21.9753 37.3887L28.5041 39.2016L28.5196 39.1975V35.881Z" fill="#1FB6D7"/>
<path d="M32.4466 30.6558L32.063 34.9241L28.5083 35.8832V39.1997L35.0423 37.3888L35.0907 36.8505L35.6445 30.6558H32.4466Z" fill="#1FB6D7"/>
<path d="M28.5113 21.1516V23.1316V24.331V24.3392H20.8223H20.812L20.7481 23.6225L20.6027 22.0065L20.5264 21.1516H28.5113Z" fill="#1FB6D7"/>
<path d="M28.5 27.6033V29.5833V30.7826V30.7909H25.0051H24.9948L24.9308 30.0741L24.7865 28.4582L24.7102 27.6033H28.5Z" fill="#1FB6D7"/>
</svg>
