<svg width="65" height="65" viewBox="0 0 65 65" fill="none" xmlns="http://www.w3.org/2000/svg">
<circle cx="35" cy="35" r="29" fill="white"/>
<circle cx="35" cy="35" r="27" fill="#1FB6D7"/>
<path d="M42.9291 30.1887C44.0471 29.6485 44.9443 28.7576 45.475 27.6605C46.0057 26.5634 46.1388 25.3244 45.8527 24.1447C45.5666 22.965 44.8781 21.9136 43.8989 21.1613C42.9197 20.4089 41.7073 19.9997 40.4583 20H30.5417C29.2927 19.9997 28.0803 20.4089 27.1011 21.1613C26.1219 21.9136 25.4334 22.965 25.1473 24.1447C24.8612 25.3244 24.9943 26.5634 25.525 27.6605C26.0557 28.7576 26.9529 29.6485 28.0709 30.1887C27.1485 30.6341 26.3724 31.3204 25.8299 32.1703C25.2874 33.0203 25 34.0003 25 35.0001C25 35.9998 25.2874 36.9798 25.8299 37.8297C26.3725 38.6797 27.1486 39.366 28.071 39.8114C27.1876 40.2386 26.4378 40.8871 25.8993 41.6897C25.3607 42.4923 25.0528 43.42 25.0075 44.3768C24.9623 45.3335 25.1812 46.2847 25.6417 47.1318C26.1022 47.979 26.7875 48.6914 27.6268 49.1954C28.4662 49.6994 29.429 49.9767 30.4158 49.9986C31.4026 50.0205 32.3775 49.7862 33.2397 49.32C34.1019 48.8538 34.8201 48.1725 35.32 47.3467C35.8199 46.5209 36.0835 45.5804 36.0833 44.6227V38.2947C36.5934 38.9329 37.2451 39.4514 37.99 39.8116C38.7349 40.1718 39.5539 40.3645 40.3862 40.3753C41.2184 40.3862 42.0424 40.2149 42.7971 39.8743C43.5517 39.5337 44.2175 39.0324 44.7451 38.4077C45.2726 37.783 45.6484 37.051 45.8443 36.2661C46.0402 35.4812 46.0514 34.6635 45.8769 33.8738C45.7024 33.0841 45.3468 32.3428 44.8365 31.7048C44.3261 31.0668 43.6742 30.5486 42.9291 30.1887ZM44.8333 25.3774C44.832 26.5025 44.3711 27.5811 43.5515 28.3769C42.7319 29.1727 41.6206 29.6207 40.4612 29.6227L40.4583 29.6226L40.4527 29.6227L36.0833 29.6226V21.1321H40.4583C41.6182 21.1334 42.7303 21.581 43.5505 22.3769C44.3707 23.1728 44.832 24.2519 44.8333 25.3774ZM37.0629 30.7547C36.697 31.0309 36.368 31.3502 36.0833 31.7053V30.7547L37.0629 30.7547ZM26.1667 25.3774C26.168 24.2519 26.6293 23.1728 27.4495 22.3769C28.2697 21.581 29.3818 21.1334 30.5417 21.1321H34.9167V29.6226H30.5417L30.5389 29.6227C29.3795 29.6207 28.2682 29.1727 27.4486 28.3769C26.629 27.5811 26.168 26.5025 26.1667 25.3774ZM30.5417 48.8679C29.9668 48.8684 29.3976 48.7589 28.8664 48.5458C28.3352 48.3326 27.8524 48.02 27.4458 47.6257C27.0392 47.2315 26.7166 46.7633 26.4965 46.248C26.2765 45.7328 26.1632 45.1804 26.1632 44.6227C26.1632 44.0649 26.2765 43.5126 26.4965 42.9973C26.7166 42.482 27.0392 42.0138 27.4458 41.6196C27.8524 41.2253 28.3352 40.9127 28.8664 40.6996C29.3976 40.4864 29.9668 40.377 30.5417 40.3774L34.9167 40.3773V44.6227C34.9153 45.7482 34.454 46.8273 33.6338 47.6231C32.8136 48.419 31.7016 48.8667 30.5417 48.8679ZM34.9167 39.2452L30.5417 39.2453C29.3817 39.2451 28.2693 38.798 27.4491 38.0021C26.6288 37.2063 26.1678 36.1269 26.1674 35.0014C26.1671 33.8758 26.6274 32.7962 27.4471 31.9998C28.2669 31.2035 29.379 30.7556 30.5389 30.7547L30.5417 30.7548L34.9167 30.7547V39.2452ZM40.4583 39.2453C39.2988 39.245 38.1868 38.7979 37.3667 38.0024C36.5466 37.2069 36.0855 36.128 36.0848 35.0028C36.084 33.8776 36.5437 32.7981 37.3627 32.0016C38.1817 31.2051 39.2931 30.7566 40.4527 30.7548H40.4583L40.4611 30.7547C41.6207 30.7562 42.7323 31.2043 43.5516 32.0005C44.3709 32.7968 44.8309 33.8762 44.8305 35.0014C44.8302 36.1266 44.3694 37.2057 43.5496 38.0014C42.7298 38.7972 41.6179 39.2446 40.4583 39.2453Z" fill="white"/>
</svg>
