<svg width="58" height="58" viewBox="0 0 58 58" fill="none" xmlns="http://www.w3.org/2000/svg">
<circle cx="29" cy="29" r="29" fill="white"/>
<circle cx="29" cy="29" r="27" fill="#1FB6D7"/>
<path d="M41.1218 22.3154C39.8699 20.1704 38.1718 18.4722 36.027 17.2204C33.8818 15.9685 31.54 15.3428 28.9998 15.3428C26.4599 15.3428 24.1173 15.9687 21.9726 17.2204C19.8276 18.4721 18.1295 20.1704 16.8776 22.3154C15.6259 24.4603 15 26.8026 15 29.3422C15 32.3928 15.89 35.136 17.6705 37.5724C19.4508 40.0091 21.7507 41.6951 24.57 42.6308C24.8982 42.6917 25.1411 42.6489 25.2991 42.5034C25.4571 42.3577 25.536 42.1752 25.536 41.9567C25.536 41.9203 25.5329 41.5923 25.5268 40.9724C25.5206 40.3525 25.5176 39.8117 25.5176 39.3503L25.0983 39.4228C24.831 39.4718 24.4938 39.4926 24.0866 39.4867C23.6797 39.481 23.2572 39.4383 22.8198 39.359C22.3822 39.2805 21.9751 39.0982 21.5984 38.8126C21.2218 38.527 20.9545 38.1532 20.7965 37.6917L20.6142 37.2722C20.4927 36.9929 20.3014 36.6827 20.0401 36.3427C19.7787 36.0023 19.5145 35.7716 19.2472 35.6501L19.1195 35.5587C19.0345 35.498 18.9556 35.4247 18.8826 35.3398C18.8097 35.2548 18.7551 35.1697 18.7186 35.0846C18.6821 34.9993 18.7124 34.9294 18.8097 34.8746C18.9071 34.8197 19.0831 34.7931 19.3384 34.7931L19.7028 34.8476C19.9459 34.8963 20.2466 35.0418 20.6052 35.285C20.9636 35.528 21.2583 35.8439 21.4892 36.2326C21.7689 36.731 22.1058 37.1107 22.5009 37.3721C22.8958 37.6334 23.2938 37.7638 23.6948 37.7638C24.0958 37.7638 24.4421 37.7334 24.7338 37.673C25.0253 37.6122 25.2988 37.5208 25.5541 37.3994C25.6635 36.5848 25.9612 35.9591 26.4472 35.5217C25.7546 35.4489 25.1319 35.3392 24.5788 35.1935C24.026 35.0475 23.4547 34.8107 22.8654 34.4822C22.2758 34.1542 21.7867 33.747 21.3979 33.2611C21.0091 32.775 20.69 32.1367 20.441 31.347C20.192 30.557 20.0674 29.6456 20.0674 28.6127C20.0674 27.142 20.5475 25.8905 21.5076 24.8574C21.0579 23.7517 21.1003 22.5122 21.6351 21.139C21.9875 21.0295 22.5102 21.1117 23.2028 21.385C23.8955 21.6584 24.4027 21.8927 24.7249 22.0869C25.0471 22.2811 25.3052 22.4456 25.4997 22.5791C26.6301 22.2632 27.7966 22.1052 28.9996 22.1052C30.2027 22.1052 31.3695 22.2632 32.4999 22.5791L33.1926 22.1418C33.6663 21.85 34.2256 21.5826 34.8693 21.3395C35.5134 21.0966 36.006 21.0297 36.3464 21.1392C36.893 22.5125 36.9418 23.7519 36.4919 24.8576C37.4519 25.8907 37.9322 27.1425 37.9322 28.6129C37.9322 29.6458 37.8072 30.56 37.5585 31.3562C37.3095 32.1524 36.9877 32.79 36.5928 33.2702C36.1976 33.7504 35.7053 34.1545 35.116 34.4824C34.5266 34.8106 33.9551 35.0475 33.4023 35.1934C32.8493 35.3394 32.2266 35.4491 31.534 35.522C32.1657 36.0686 32.4816 36.9315 32.4816 38.1103V41.9562C32.4816 42.1747 32.5576 42.3571 32.7097 42.5029C32.8616 42.6484 33.1014 42.6912 33.4296 42.6302C36.2493 41.6947 38.5492 40.0086 40.3294 37.5719C42.1095 35.1354 42.9998 32.3923 42.9998 29.3417C42.9992 26.8024 42.373 24.4603 41.1218 22.3154Z" fill="white"/>
</svg>
