<svg width="58" height="58" viewBox="0 0 58 58" fill="none" xmlns="http://www.w3.org/2000/svg">
<circle cx="29" cy="29" r="29" fill="white"/>
<circle cx="29" cy="29" r="27" fill="#1FB6D7"/>
<path d="M18.0864 42.051L15.7692 16.0625H41.2308L38.9105 42.0469L28.4845 44.9375L18.0864 42.051Z" fill="white"/>
<path d="M28.5 42.7286L36.9253 40.3929L38.9074 18.188H28.5V42.7286Z" fill="white"/>
<path d="M28.5 27.826H24.2822L23.9914 24.5621H28.5V21.3745H28.4887H20.5078L20.5841 22.2304L21.3668 31.0136H28.5V27.826Z" fill="#1FB6D7"/>
<path d="M28.5 36.1038L28.4856 36.108L24.936 35.1499L24.7091 32.6079H22.9838H21.5092L21.9557 37.6115L28.4856 39.4245L28.5 39.4203V36.1038Z" fill="#1FB6D7"/>
<path d="M28.4886 27.8259V31.0135H32.4136L32.0444 35.1478L28.4886 36.1069V39.4234L35.0237 37.6115L35.0711 37.0731L35.8198 28.6819L35.8982 27.8259H35.0391H28.4886Z" fill="#1FB6D7"/>
<path d="M28.4886 21.3745V23.3545V24.5549V24.5621H36.1776H36.188L36.2519 23.8464L36.3973 22.2304L36.4736 21.3745H28.4886Z" fill="#1FB6D7"/>
</svg>
