<svg width="58" height="58" viewBox="0 0 58 58" fill="none" xmlns="http://www.w3.org/2000/svg">
<circle cx="29" cy="29" r="29" fill="white"/>
<circle cx="29" cy="29" r="27" fill="#1FB6D7"/>
<path d="M35.3118 18.7135C36.6307 18.715 37.8952 19.2396 38.8278 20.1722C39.7604 21.1048 40.285 22.3693 40.2865 23.6882V36.3118C40.2853 37.6308 39.7608 38.8955 38.8281 39.8281C37.8955 40.7608 36.6308 41.2853 35.3118 41.2865H22.6882C21.3693 41.285 20.1048 40.7604 19.1722 39.8278C18.2396 38.8952 17.715 37.6307 17.7135 36.3118V23.6882C17.715 22.3693 18.2396 21.1048 19.1722 20.1722C20.1048 19.2396 21.3693 18.715 22.6882 18.7135H35.3118ZM35.3118 17H22.6882C20.9145 17.0003 19.2135 17.705 17.9593 18.9593C16.705 20.2135 16.0003 21.9145 16 23.6882V36.3118C16 38.0856 16.7046 39.7868 17.9589 41.0411C19.2132 42.2954 20.9144 43 22.6882 43H35.3118C37.0856 43 38.7868 42.2954 40.0411 41.0411C41.2954 39.7868 42 38.0856 42 36.3118V23.6882C42 21.9144 41.2954 20.2132 40.0411 18.9589C38.7868 17.7046 37.0856 17 35.3118 17Z" fill="white"/>
<path d="M29.0006 25.8389C29.8236 25.8389 30.6282 26.083 31.3125 26.5403C31.9969 26.9975 32.5302 27.6475 32.8452 28.4079C33.1602 29.1683 33.2426 30.005 33.082 30.8122C32.9215 31.6194 32.5251 32.3609 31.9431 32.9429C31.3611 33.5249 30.6197 33.9212 29.8124 34.0818C29.0052 34.2424 28.1685 34.16 27.4081 33.845C26.6477 33.53 25.9977 32.9967 25.5405 32.3123C25.0832 31.628 24.8392 30.8234 24.8392 30.0004C24.8404 28.8971 25.2792 27.8393 26.0593 27.0591C26.8395 26.279 27.8973 25.8402 29.0006 25.8389M29.0006 24.1255C27.8386 24.1253 26.7026 24.4696 25.7364 25.115C24.7701 25.7604 24.0169 26.6779 23.5721 27.7514C23.1272 28.8248 23.0107 30.0061 23.2373 31.1458C23.4639 32.2855 24.0233 33.3324 24.8449 34.1541C25.6664 34.9759 26.7132 35.5355 27.8529 35.7623C28.9925 35.989 30.1738 35.8728 31.2474 35.4281C32.3209 34.9835 33.2385 34.2305 33.8841 33.2644C34.5297 32.2982 34.8743 31.1624 34.8743 30.0004C34.874 28.4425 34.2551 26.9486 33.1537 25.8469C32.0522 24.7453 30.5584 24.1261 29.0006 24.1255V24.1255Z" fill="white"/>
<circle cx="36.5" cy="22.5" r="1.5" stroke="white"/>
</svg>
