<svg width="58" height="58" viewBox="0 0 58 58" fill="none" xmlns="http://www.w3.org/2000/svg">
<circle cx="29" cy="29" r="29" fill="white"/>
<circle cx="29" cy="29" r="27" fill="#1FB6D7"/>
<path d="M43.7417 22.2507C43.7558 22.2791 43.7558 22.3216 43.7558 22.3641V28.4416C43.7558 28.5832 43.6708 28.7532 43.5433 28.8241L38.4292 31.7707V37.5932C38.4292 37.7491 38.3583 37.8907 38.2167 37.9757L27.5633 44.1099C27.535 44.1241 27.5067 44.1666 27.4783 44.1666H27.45C27.3792 44.1666 27.2942 44.1666 27.2233 44.1666C27.2092 44.1666 27.1667 44.1666 27.1667 44.1666C27.1667 44.1666 27.1667 44.1241 27.11 44.1099L16.4567 37.9757C16.3292 37.9049 16.2442 37.7491 16.2442 37.5932V19.3749C16.2442 19.3041 16.2442 19.2616 16.2583 19.2332C16.2583 19.2191 16.2725 19.2049 16.2725 19.1907C16.2725 19.1624 16.2867 19.1482 16.3008 19.1199C16.3008 19.1057 16.315 19.0916 16.3292 19.0774C16.3433 19.0632 16.3575 19.0491 16.3717 19.0349C16.3858 19.0207 16.4 19.0066 16.4142 18.9924C16.4283 18.9782 16.4425 18.9641 16.4567 18.9641L21.7833 15.8899C21.925 15.8332 22.095 15.8332 22.2083 15.8899L27.5633 18.9641C27.5775 18.9782 27.5917 18.9782 27.6058 18.9924C27.62 19.0066 27.6342 19.0207 27.6483 19.0349C27.6625 19.0491 27.6767 19.0632 27.6908 19.0774C27.705 19.0916 27.7192 19.1057 27.7192 19.1199C27.7333 19.1482 27.7475 19.1624 27.7475 19.1907C27.7475 19.2049 27.7617 19.2191 27.7617 19.2332C27.7758 19.2757 27.7758 19.3041 27.7758 19.3749V30.7082L32.2242 28.1866V22.3641C32.2242 22.3216 32.2242 22.2791 32.2383 22.2507L32.2525 22.2082C32.2525 22.2082 32.2667 22.1657 32.2808 22.1374C32.2808 22.1232 32.295 22.1091 32.3092 22.0949C32.3233 22.0807 32.3375 22.0666 32.3517 22.0524C32.3658 22.0382 32.38 22.0241 32.3942 22.0099C32.4083 21.9957 32.4225 21.9816 32.4367 21.9816L37.7917 18.9074C37.905 18.8224 38.075 18.8224 38.2167 18.9074L43.5433 21.9816C43.5575 21.9816 43.5717 21.9957 43.5858 22.0099L43.6283 22.0524C43.6425 22.0666 43.6567 22.0807 43.6708 22.0949C43.685 22.1091 43.685 22.1232 43.6992 22.1374C43.7133 22.1657 43.7133 22.2082 43.7275 22.2082C43.7417 22.2082 43.7417 22.2082 43.7417 22.2507ZM42.8775 28.1866V23.1291L38.4292 25.6791V30.7082L42.8775 28.1866ZM37.5508 37.3382V32.2666L27.7758 37.8482V42.9624L37.5508 37.3382ZM17.1225 20.0832V37.3382L26.8975 42.9624V37.8482L21.7975 34.9582H21.7833C21.7692 34.9582 21.755 34.9582 21.7408 34.9157C21.7267 34.9157 21.7125 34.9016 21.6983 34.8874C21.6842 34.8732 21.67 34.8591 21.6558 34.8449C21.6417 34.8307 21.6417 34.8166 21.6275 34.8024C21.6133 34.7741 21.6133 34.7599 21.5992 34.7457C21.5992 34.7174 21.585 34.7032 21.585 34.6891C21.5708 34.6749 21.5708 34.6466 21.5708 34.6324C21.5708 34.6041 21.5708 34.5899 21.5708 34.5757V22.6616L17.1225 20.0832ZM22.01 16.7966L17.5758 19.3749L22.01 21.8966L26.4583 19.3749L22.01 16.7966ZM26.8975 31.2466V20.0832L22.4492 22.6616V33.8107L26.8975 31.2466ZM37.99 19.7999L33.5417 22.3641L37.99 24.9141L42.4242 22.3641L37.99 19.7999ZM37.5508 25.6791L33.1025 23.1291V28.1866L37.5508 30.7082V25.6791ZM27.3367 37.0832L37.0833 31.5016L32.6633 28.9516L22.9167 34.5757L27.3367 37.0832Z" fill="white"/>
</svg>
