<svg width="58" height="58" viewBox="0 0 58 58" fill="none" xmlns="http://www.w3.org/2000/svg">
<circle cx="29" cy="29" r="29" fill="white"/>
<circle cx="29" cy="29" r="27" fill="#1FB6D7"/>
<path d="M28.5 39.514C39.4126 39.514 48.2591 35.0306 48.2591 29.5C48.2591 23.9695 39.4126 19.4861 28.5 19.4861C17.5874 19.4861 8.74091 23.9695 8.74091 29.5C8.74091 35.0306 17.5874 39.514 28.5 39.514Z" fill="white"/>
<path d="M19.9489 26.4273C20.2658 26.3874 20.5875 26.4107 20.8953 26.4959C21.2031 26.5812 21.491 26.7266 21.7423 26.9237C21.9044 27.1734 22.0078 27.4565 22.0447 27.7519C22.0816 28.0472 22.051 28.3471 21.9553 28.629C21.8713 29.3229 21.5358 29.962 21.0123 30.4252C20.3809 30.8319 19.6346 31.0226 18.8856 30.9687H17.4491L18.3304 26.4317L19.9489 26.4273ZM14.1958 35.557H16.5576L17.1172 32.6754H19.1397C19.8841 32.6957 20.6272 32.6011 21.3428 32.3948C21.9301 32.2009 22.4669 31.8788 22.9143 31.4519C23.6889 30.7551 24.2106 29.8213 24.3978 28.7964C24.546 28.2867 24.572 27.7493 24.4738 27.2278C24.3755 26.7062 24.1558 26.2151 23.8323 25.7943C23.4423 25.4085 22.9728 25.1124 22.4566 24.9267C21.9403 24.741 21.3898 24.6702 20.8434 24.7191H16.3094L14.1958 35.557Z" fill="#1FB6D7"/>
<path d="M26.1309 21.8362H28.4809L27.9125 24.7179H29.9996C30.9582 24.6175 31.9212 24.8612 32.7168 25.4052C32.9801 25.7045 33.1601 26.0678 33.2387 26.4586C33.3173 26.8494 33.2918 27.254 33.1648 27.6319L32.1851 32.6756H29.8072L30.7398 27.8801C30.8048 27.6971 30.828 27.5018 30.8076 27.3086C30.7873 27.1155 30.724 26.9293 30.6223 26.7638C30.2822 26.5202 29.8621 26.4152 29.4473 26.4701H27.5747L26.3674 32.68H24.0174L26.1309 21.8362Z" fill="#1FB6D7"/>
<path d="M38.3803 26.4273C38.6972 26.3874 39.0188 26.4107 39.3267 26.4959C39.6345 26.5812 39.9224 26.7266 40.1736 26.9237C40.3358 27.1734 40.4392 27.4565 40.4761 27.7519C40.5129 28.0472 40.4824 28.3471 40.3866 28.629C40.3026 29.3229 39.9672 29.962 39.4437 30.4252C38.8111 30.8328 38.063 31.0236 37.3125 30.9687H35.8761L36.7573 26.4317L38.3803 26.4273ZM32.6272 35.557H34.9889L35.5485 32.6754H37.571C38.3154 32.6957 39.0585 32.6011 39.7741 32.3948C40.3614 32.2009 40.8982 31.8788 41.3457 31.4519C42.1202 30.7551 42.6419 29.8213 42.8291 28.7964C42.9773 28.2867 43.0034 27.7493 42.9051 27.2278C42.8069 26.7062 42.5871 26.2151 42.2637 25.7943C41.8736 25.4085 41.4041 25.1124 40.8879 24.9267C40.3717 24.741 39.8212 24.6702 39.2748 24.7191H34.7334L32.6272 35.557Z" fill="#1FB6D7"/>
</svg>
