<svg width="71" height="71" viewBox="0 0 71 71" fill="none" xmlns="http://www.w3.org/2000/svg">
<circle cx="35" cy="35" r="29" fill="white"/>
<circle cx="35" cy="35" r="27" fill="#1FB6D7"/>
<path d="M20.5123 23.1181C20.5123 22.9059 20.547 22.8407 20.7231 22.8407C22.1681 22.8061 24.9498 22.7354 27.6276 22.7354C34.7428 22.7354 37.2098 26.6806 37.2098 30.5204C37.2098 36.2281 32.8056 38.6577 27.3807 38.6577H25.3769V45.5912C25.3769 45.7674 25.3062 45.8686 25.0996 45.8686H20.7578C20.5817 45.8686 20.5123 45.7632 20.5123 45.5912V23.1181ZM25.3769 34.32C25.976 34.3547 26.3629 34.3547 27.3502 34.3547C30.1334 34.3547 32.3521 33.5088 32.3521 30.6202C32.3521 28.4015 30.8378 26.9926 27.776 26.9926C26.6486 26.9926 25.6959 27.0272 25.3797 27.0633L25.3769 34.32Z" fill="white"/>
<path d="M46.261 31.9237C44.6052 31.9237 44.0769 32.5228 44.0769 33.1219C44.0769 33.7209 44.5359 34.1785 46.573 34.9537C50.8357 36.5041 52.1739 38.1598 52.1739 40.6601C52.1739 44.0076 49.5669 46.2264 44.9172 46.2264C42.7692 46.2264 40.8957 45.8381 39.8099 45.2404C39.7352 45.2071 39.6719 45.1526 39.628 45.0835C39.5841 45.0144 39.5615 44.9339 39.5631 44.8521V41.047C39.5631 40.8348 39.7018 40.7294 39.8404 40.8348C41.4615 41.8568 43.4334 42.2437 45.0185 42.2437C46.6742 42.2437 47.4147 41.7861 47.4147 41.047C47.4147 40.3772 46.8156 39.8835 44.7369 39.1056C40.7571 37.6259 39.4536 35.9341 39.4536 33.3978C39.4536 30.6507 41.6723 28.009 46.322 28.009C48.402 28.009 50.0217 28.2864 50.8981 28.7135C50.9813 28.7551 51.0495 28.8215 51.0934 28.9034C51.1373 28.9853 51.1549 29.0788 51.1436 29.1711V32.6934C51.1436 32.9055 51.0049 33.0456 50.7914 32.9402C49.6445 32.3467 47.8418 31.9237 46.261 31.9237Z" fill="white"/>
</svg>
