<svg width="58" height="58" viewBox="0 0 58 58" fill="none" xmlns="http://www.w3.org/2000/svg">
<circle cx="29" cy="29" r="29" fill="white"/>
<circle cx="29" cy="29" r="27" fill="#1FB6D7"/>
<path d="M43.343 27.6958C43.309 31.2868 42.3858 34.0962 40.4656 36.5374C38.4039 39.1599 35.7192 40.8251 32.434 41.4991C29.8965 42.0146 27.427 41.788 25.0027 40.9101C24.4647 40.7118 23.9379 40.4796 23.4338 40.2021C23.2809 40.1171 23.1506 40.1058 22.9807 40.1624C20.6867 40.9044 18.3871 41.6407 16.0875 42.3714C15.9856 42.4054 15.8496 42.5017 15.7703 42.428C15.6797 42.3374 15.793 42.2015 15.827 42.0938C16.2858 40.7288 16.7445 39.3581 17.209 37.9931C17.4922 37.1604 17.7641 36.3335 18.0586 35.5065C18.1379 35.2913 18.1096 35.1271 17.9906 34.9288C17.4072 33.9319 16.9768 32.8671 16.6709 31.7513C16.0988 29.6556 16.0365 27.5372 16.484 25.4188C16.9711 23.1079 17.9906 21.0462 19.5596 19.2677C21.457 17.1153 23.7963 15.6937 26.5774 15.0083C28.3502 14.5722 30.1401 14.5042 31.9412 14.7987C34.2975 15.1839 36.4215 16.1185 38.2736 17.6251C40.1994 19.194 41.6041 21.1425 42.4877 23.4817C42.9748 24.7448 43.36 26.8122 43.343 27.6958ZM19.2254 39.0069C20.6301 38.5538 21.9725 38.1233 23.3035 37.6872C23.4791 37.6306 23.6207 37.6419 23.7736 37.7438C24.2834 38.0837 24.8328 38.3556 25.3992 38.5935C27.2401 39.3751 29.1545 39.6583 31.1313 39.4034C33.5555 39.0919 35.6852 38.1177 37.475 36.4241C39.7293 34.2888 40.9358 31.672 41.0434 28.5794C41.1453 25.5491 40.1711 22.887 38.1377 20.6271C36.2063 18.4804 33.782 17.2569 30.9217 16.9511C28.4352 16.6849 26.1072 17.2229 23.9549 18.5144C22.1141 19.6245 20.7037 21.1368 19.7238 23.0456C18.642 25.147 18.2738 27.3786 18.5854 29.7179C18.8176 31.4851 19.452 33.1106 20.4715 34.572C20.5848 34.7362 20.6188 34.8722 20.5508 35.0647C20.3412 35.6425 20.1543 36.2259 19.9561 36.8036C19.7182 37.5173 19.486 38.231 19.2254 39.0069Z" fill="white"/>
<path d="M22.9863 25.028C23.0147 23.68 23.4904 22.6775 24.391 21.8788C24.6799 21.6183 25.0367 21.505 25.4389 21.5616C25.6088 21.5843 25.7787 21.6013 25.9486 21.59C26.2658 21.573 26.4811 21.7259 26.5887 22.0034C26.9682 22.989 27.3363 23.9745 27.7045 24.9657C27.8291 25.3056 27.6139 25.5718 27.4326 25.8153C27.2231 26.1042 26.9682 26.3591 26.719 26.614C26.4641 26.8745 26.4301 27.0218 26.6057 27.339C27.6309 29.2025 29.0695 30.6355 31.0236 31.5191C31.0916 31.5474 31.1596 31.587 31.2276 31.621C31.4881 31.7399 31.7203 31.7116 31.9186 31.4851C32.2811 31.0603 32.6776 30.6694 33.0117 30.222C33.2326 29.9274 33.3856 29.8765 33.7197 30.0237C34.7166 30.4542 35.6512 30.998 36.6027 31.5247C36.7783 31.621 36.8406 31.7683 36.835 31.9722C36.784 33.6431 35.8268 34.5153 34.1445 34.9005C33.3289 35.0874 32.5756 34.8835 31.8279 34.6116C30.259 34.0452 28.7467 33.3769 27.4779 32.2554C26.4697 31.3605 25.5805 30.3636 24.8272 29.2478C24.2494 28.3868 23.649 27.5429 23.3149 26.5403C23.1223 26.0079 22.9807 25.4642 22.9863 25.028Z" fill="white"/>
</svg>
