<svg width="58" height="58" viewBox="0 0 58 58" fill="none" xmlns="http://www.w3.org/2000/svg">
<circle cx="29" cy="29" r="29" fill="white"/>
<circle cx="29" cy="29" r="27" fill="#1FB6D7"/>
<path d="M23.8133 28.2L29.9545 37.6802C29.9786 37.7086 29.9938 37.7427 29.9984 37.7787C30.0031 37.8147 29.9972 37.8513 29.9811 37.8843C29.9651 37.9173 29.9397 37.9456 29.9077 37.966C29.8756 37.9864 29.8382 37.9982 29.7995 38H25.3956C25.116 38 24.961 37.9132 24.8682 37.7384C23.5032 35.4758 22.1382 33.2119 20.7427 30.8328H20.711C19.4705 33.1548 18.1055 35.5043 16.804 37.7681C16.7676 37.845 16.7056 37.9088 16.6273 37.9499C16.5489 37.9911 16.4585 38.0075 16.3694 37.9966H12.1828C11.9655 37.9966 11.9655 37.8218 12.0608 37.7065L18.0164 28.4799L12.1828 19.291C12.1574 19.265 12.141 19.2325 12.1358 19.1977C12.1306 19.1629 12.1368 19.1274 12.1536 19.096C12.1704 19.0645 12.197 19.0386 12.23 19.0216C12.2629 19.0046 12.3005 18.9974 12.3379 19.0008H16.7112C16.9286 19.0008 17.0213 19.0294 17.1141 19.2293C18.3546 21.5217 19.8124 23.814 21.0846 26.1064H21.1151C22.325 23.7843 23.6888 21.5502 24.961 19.2293C25.0538 19.0842 25.116 19.0008 25.3956 19.0008H29.3966C29.6127 19.0008 29.6408 19.1459 29.5187 19.3195L23.8133 28.2Z" fill="white"/>
<path d="M30 31.2274C30 26.8507 33.2152 23.1788 38.7147 23.1788C38.9512 23.1788 39.2553 23.209 39.706 23.2391V17.2157C39.7028 17.1867 39.706 17.1574 39.7155 17.1299C39.7249 17.1024 39.7403 17.0774 39.7605 17.0568C39.7808 17.0362 39.8053 17.0205 39.8323 17.0109C39.8593 17.0013 39.8881 16.998 39.9165 17.0012H43.7019C43.8521 17.0012 43.8817 17.0627 43.8817 17.1855V35.2667C43.8738 36.013 43.9133 36.759 44 37.5002C44 37.6532 43.9692 37.7146 43.7894 37.776C41.9188 38.585 39.9071 39.0013 37.8748 39C33.4258 39 30 36.428 30 31.2274ZM39.706 26.8809C39.4055 26.7604 39.0151 26.7279 38.594 26.7279C36.2802 26.7279 34.2976 28.1662 34.2976 31.0129C34.2976 34.0427 36.0105 35.3582 38.2935 35.3582C38.8046 35.3582 39.286 35.3281 39.706 35.1739V26.8809Z" fill="white"/>
</svg>
